<svg width="128" height="128" viewBox="0 0 128 128" fill="none" xmlns="http://www.w3.org/2000/svg">
<rect width="128" height="128" fill="white"/>
<path d="M128 128L0 0H128V128Z" fill="#3F97FF" fill-opacity="0.05"/>
<g clip-path="url(#clip0)">
<path d="M9.16666 52.0833C9.16666 50.3815 9.8427 48.7494 11.0461 47.5461C12.2494 46.3427 13.8815 45.6667 15.5833 45.6667H22V58.5H15.5833C13.8815 58.5 12.2494 57.824 11.0461 56.6206C9.8427 55.4172 9.16666 53.7851 9.16666 52.0833Z" stroke="#0E0E0E" stroke-width="4" stroke-linecap="round" stroke-linejoin="round"/>
<path d="M22 45.6667H28.4167C29.2593 45.6667 30.0937 45.8326 30.8722 46.1551C31.6507 46.4776 32.3581 46.9502 32.9539 47.5461C33.5498 48.1419 34.0224 48.8493 34.3449 49.6278C34.6674 50.4063 34.8333 51.2407 34.8333 52.0833C34.8333 52.926 34.6674 53.7604 34.3449 54.5389C34.0224 55.3174 33.5498 56.0248 32.9539 56.6206C32.3581 57.2164 31.6507 57.6891 30.8722 58.0116C30.0937 58.334 29.2593 58.5 28.4167 58.5H22V45.6667Z" stroke="#0E0E0E" stroke-width="4" stroke-linecap="round" stroke-linejoin="round"/>
<path d="M22 64.9167C22 64.074 22.166 63.2396 22.4884 62.4611C22.8109 61.6826 23.2836 60.9752 23.8794 60.3794C24.4752 59.7836 25.1826 59.3109 25.9611 58.9884C26.7396 58.666 27.574 58.5 28.4167 58.5C29.2593 58.5 30.0937 58.666 30.8722 58.9884C31.6507 59.3109 32.3581 59.7836 32.9539 60.3794C33.5498 60.9752 34.0224 61.6826 34.3449 62.4611C34.6674 63.2396 34.8333 64.074 34.8333 64.9167C34.8333 65.7593 34.6674 66.5937 34.3449 67.3722C34.0224 68.1507 33.5498 68.8581 32.9539 69.4539C32.3581 70.0498 31.6507 70.5224 30.8722 70.8449C30.0937 71.1674 29.2593 71.3333 28.4167 71.3333C27.574 71.3333 26.7396 71.1674 25.9611 70.8449C25.1826 70.5224 24.4752 70.0498 23.8794 69.4539C23.2836 68.8581 22.8109 68.1507 22.4884 67.3722C22.166 66.5937 22 65.7593 22 64.9167V64.9167Z" stroke="#0E0E0E" stroke-width="4" stroke-linecap="round" stroke-linejoin="round"/>
<path d="M9.16666 77.75C9.16666 76.0482 9.8427 74.4161 11.0461 73.2127C12.2494 72.0094 13.8815 71.3333 15.5833 71.3333H22V77.75C22 79.4518 21.3239 81.0839 20.1206 82.2873C18.9172 83.4906 17.2851 84.1667 15.5833 84.1667C13.8815 84.1667 12.2494 83.4906 11.0461 82.2873C9.8427 81.0839 9.16666 79.4518 9.16666 77.75Z" stroke="#0E0E0E" stroke-width="4" stroke-linecap="round" stroke-linejoin="round"/>
<path d="M9.16666 64.9167C9.16666 63.2149 9.8427 61.5828 11.0461 60.3794C12.2494 59.176 13.8815 58.5 15.5833 58.5H22V71.3333H15.5833C13.8815 71.3333 12.2494 70.6573 11.0461 69.4539C9.8427 68.2506 9.16666 66.6185 9.16666 64.9167Z" stroke="#0E0E0E" stroke-width="4" stroke-linecap="round" stroke-linejoin="round"/>
</g>
<g clip-path="url(#clip1)">
<path d="M106 43.8333V84.1667" stroke="#0E0E0E" stroke-width="4" stroke-linecap="round" stroke-linejoin="round"/>
<path d="M115.167 51.1667H101.417C99.7149 51.1667 98.0828 51.8427 96.8794 53.0461C95.676 54.2494 95 55.8815 95 57.5833C95 59.2851 95.676 60.9172 96.8794 62.1206C98.0828 63.324 99.7149 64 101.417 64H110.583C112.285 64 113.917 64.676 115.121 65.8794C116.324 67.0828 117 68.7149 117 70.4167C117 72.1185 116.324 73.7506 115.121 74.9539C113.917 76.1573 112.285 76.8333 110.583 76.8333H95" stroke="#0E0E0E" stroke-width="4" stroke-linecap="round" stroke-linejoin="round"/>
</g>
<path d="M85.0607 65.0607C85.6464 64.4749 85.6464 63.5251 85.0607 62.9393L75.5147 53.3934C74.9289 52.8076 73.9792 52.8076 73.3934 53.3934C72.8076 53.9792 72.8076 54.9289 73.3934 55.5147L81.8787 64L73.3934 72.4853C72.8076 73.0711 72.8076 74.0208 73.3934 74.6066C73.9792 75.1924 74.9289 75.1924 75.5147 74.6066L85.0607 65.0607ZM44 65.5H84V62.5H44V65.5Z" fill="black"/>
<defs>
<clipPath id="clip0">
<rect width="44" height="44" fill="white" transform="translate(0 42)"/>
</clipPath>
<clipPath id="clip1">
<rect width="44" height="44" fill="white" transform="translate(84 42)"/>
</clipPath>
</defs>
</svg>
