<svg width="128" height="128" viewBox="0 0 128 128" fill="none" xmlns="http://www.w3.org/2000/svg">
<g clip-path="url(#clip0)">
<rect width="128" height="128" fill="white"/>
<path d="M44.2119 76.5284L82.333 19.7195M44.223 76.5359L63.965 47.3111M44.2411 76.5482L57.8777 56.4977M44.2663 76.5654L54.8668 61.0861M44.2982 76.5873L53.0911 63.8375M44.3367 76.6139L51.937 65.6721M44.3816 76.6453L51.1412 66.9845M44.4328 76.6812L50.5723 67.9717M44.49 76.7217L50.1569 68.7432M44.5531 76.7667L49.8513 69.3648M44.6219 76.8161L49.6274 69.878M44.6962 76.8699L49.4665 70.3107M44.7758 76.9281L49.3557 70.6822M44.8606 76.9905L49.2857 71.006M44.9504 77.0572L49.2496 71.2923M45.0449 77.128L49.2424 71.5485M45.1441 77.203L49.2601 71.7802M45.2477 77.2819L49.2996 71.992M45.3555 77.3649L49.3585 72.1871M45.4675 77.4519L49.435 72.3685M45.5833 77.5427L49.5273 72.5382M45.7028 77.6374L49.6343 72.6981M45.8258 77.7358L49.7549 72.8495M45.9522 77.8379L49.8882 72.9937M46.0817 77.9438L50.0335 73.1315M46.2143 78.0532L50.1903 73.2639M46.3496 78.1662L50.358 73.3915M46.4876 78.2827L50.5363 73.5148M46.628 78.4026L50.7249 73.6343M46.7707 78.5259L50.9235 73.7503M46.9155 78.6526L51.1319 73.8631M47.0621 78.7825L51.35 73.9731M47.2105 78.9157L51.5779 74.0804M47.3604 79.052L51.8153 74.1852M47.5117 79.1915L52.0625 74.2876M47.6642 79.3339L52.3194 74.3878M47.8177 79.4794L52.5862 74.4858M47.972 79.6279L52.8631 74.5817M48.1269 79.7792L53.1503 74.6756M48.2823 79.9334L53.4481 74.7675M48.4379 80.0903L53.7567 74.8576M48.5937 80.2499L54.0767 74.9458M48.7494 80.4123L54.4083 75.0322M48.9048 80.5772L54.752 75.1169M49.0598 80.7447L55.1085 75.2M49.2141 80.9147L55.4782 75.2817M49.3676 81.0871L55.8619 75.362M49.5202 81.2619L56.2602 75.4411M49.6716 81.4391L56.6739 75.5192M49.8216 81.6185L57.1038 75.5967M49.9701 81.8002L57.5509 75.6739M50.1169 81.984L58.016 75.7512M50.2618 82.17L58.5003 75.829M50.4047 82.3579L59.0047 75.908M50.5453 82.5479L59.5304 75.9888M50.6835 82.7399L60.0785 76.0724M50.819 82.9337L60.6504 76.1597M50.9518 83.1294L61.247 76.2518M51.0816 83.3268L61.8698 76.3501M51.2082 83.5259L62.5199 76.4561" stroke="#1B2852" stroke-opacity="0.6"/>
<path d="M51.2082 83.5259L61.9812 76.7928M51.3311 83.7259L62.145 77.1888M51.45 83.9258L62.2981 77.5832M51.5648 84.1254L62.4409 77.9752M51.6756 84.3248L62.5742 78.3646M51.7826 84.5236L62.6985 78.7508M51.8857 84.722L62.8144 79.1334M51.9851 84.9196L62.9226 79.512M52.0808 85.1165L63.0237 79.8864M52.1729 85.3124L63.1184 80.2561M52.2614 85.5074L63.2072 80.6209M52.3465 85.7013L63.2907 80.9806M52.4282 85.8939L63.3697 81.335M52.5065 86.0853L63.4446 81.6838M52.5816 86.2751L63.5162 82.0269M52.6535 86.4634L63.5851 82.3641M52.7223 86.6501L63.6517 82.6954M52.788 86.835L63.7169 83.0205M52.8507 87.018L63.7812 83.3394M52.9105 87.1989L63.8452 83.6521M52.9675 87.3778L63.9096 83.9584M53.0216 87.5545L63.975 84.2583M53.0731 87.7288L64.0422 84.5517M53.1219 87.9006L64.1118 84.8387M53.1682 88.07L64.1846 85.1191M53.212 88.2366L64.2613 85.393M53.2533 88.4005L64.3428 85.6603M53.2923 88.5615L64.43 85.921M53.3289 88.7194L64.5238 86.1751M53.3634 88.8743L64.6253 86.4226M53.3957 89.0259L64.7356 86.6635M53.4259 89.1743L64.856 86.8977M53.4541 89.3191L64.9878 87.1252M53.4804 89.4605L65.1327 87.3461M53.5048 89.5981L65.2925 87.5603M53.5273 89.732L65.4691 87.7679M53.5482 89.8619L65.665 87.9687M53.5674 89.9879L65.8828 88.1628M53.585 90.1098L66.1259 88.3502M53.601 90.2274L66.3979 88.5309M53.6156 90.3408L66.7034 88.7048M53.6288 90.4496L67.0478 88.8719M53.6407 90.554L67.4378 89.0322M53.6513 90.6536L67.8815 89.1857M53.6608 90.7485L68.389 89.3323M53.6691 90.8384L68.9732 89.472M53.6764 90.9234L69.6507 89.6048M53.6828 91.0033L70.4428 89.7306M53.6882 91.0779L71.3784 89.8495M53.6928 91.1473L72.4965 89.9613M53.6966 91.2111L73.8518 90.066M53.6998 91.2695L75.5233 90.1635M53.7023 91.3221L77.6294 90.2539M53.7042 91.369L80.3562 90.3371M53.7057 91.41L84.0138 90.413M53.7067 91.4449L89.1602 90.4815M53.7075 91.4738L96.9117 90.5427M53.7079 91.4964L109.872 90.5964M53.7081 91.5128L135.855 90.6426M53.7082 91.5226L213.922 90.6812" stroke="#D67060" stroke-opacity="0.6"/>
<path d="M78.7044 76.528L22.2164 -24M78.6934 76.5343L49.296 24.8183M78.6753 76.5446L58.2698 41.0657M78.6502 76.5591L62.7104 49.1725M78.6185 76.5777L65.3323 54.0248M78.5802 76.6004L67.0406 57.2513M78.5355 76.6272L68.223 59.5498M78.4848 76.6581L69.0735 61.2694M78.428 76.693L69.6999 62.6039M78.3656 76.732L70.1669 63.6696M78.2976 76.775L70.5156 64.5406M78.2242 76.822L70.7736 65.266M78.1456 76.8729L70.9599 65.8802M78.0621 76.9279L71.0881 66.4074M77.9738 76.9869L71.1681 66.8656M77.8809 77.0498L71.2074 67.268M77.7836 77.1167L71.2117 67.6251M77.6822 77.1874L71.1855 67.9447M77.5767 77.2622L71.1322 68.2332M77.4674 77.3408L71.0546 68.4956M77.3545 77.4233L70.9551 68.7359M77.2382 77.5096L70.8353 68.9576M77.1187 77.5999L70.6968 69.1634M76.9962 77.6939L70.5408 69.3557M76.8708 77.7919L70.3683 69.5365M76.7428 77.8936L70.1801 69.7074M76.6123 77.9991L69.9769 69.8699M76.4796 78.1085L69.7593 70.0253M76.3448 78.2216L69.5277 70.1748M76.2082 78.3384L69.2825 70.3193M76.0699 78.4591L69.0241 70.4599M75.9301 78.5834L68.7526 70.5973M75.789 78.7115L68.4684 70.7324M75.6469 78.8433L68.1714 70.8659M75.5039 78.9788L67.8618 70.9986M75.3602 79.118L67.5398 71.1312M75.2159 79.2608L67.2055 71.2645M75.0714 79.4073L66.8587 71.3991M74.9268 79.5574L66.4997 71.5359M74.7822 79.7111L66.1285 71.6755M74.638 79.8685L65.745 71.8187M74.4942 80.0294L65.3495 71.9664M74.351 80.194L64.942 72.1195M74.2088 80.3621L64.5227 72.2788M74.0675 80.5338L64.0917 72.4452M73.9276 80.709L63.6493 72.6199M73.789 80.8877L63.1957 72.8038M73.6522 81.0699L62.7315 72.9981M73.5171 81.2557L62.257 73.204M73.3841 81.4449L61.7729 73.4227M73.2533 81.6376L61.28 73.6554M73.1249 81.8338L60.779 73.9036M72.9991 82.0334L60.2711 74.1685M72.8762 82.2365L59.7574 74.4517M72.7562 82.4429L59.2393 74.7544M72.6394 82.6528L58.7186 75.0782M72.526 82.866L58.1969 75.4244M72.4162 83.0826L57.6765 75.7943M72.3102 83.3026L57.1595 76.1893M72.2082 83.5259L56.6486 76.6106" stroke="#287F95" stroke-opacity="0.6"/>
<path d="M72.2082 83.526L65.0661 80.3517M72.1098 83.7501L64.925 80.6389M72.0148 83.9725L64.7875 80.9239M71.9229 84.1931L64.6531 81.2066M71.8342 84.4119L64.5218 81.4869M71.7487 84.6287L64.3933 81.7646M71.6662 84.8435L64.2673 82.0397M71.5867 85.0561L64.1437 82.312M71.5101 85.2667L64.0222 82.5814M71.4364 85.475L63.9026 82.8478M71.3656 85.681L63.7846 83.1112M71.2975 85.8847L63.6679 83.3714M71.2322 86.086L63.5522 83.6284M71.1695 86.2847L63.4373 83.882M71.1094 86.4809L63.3229 84.1321M71.0519 86.6744L63.2085 84.3788M70.9969 86.8652L63.094 84.6218M70.9444 87.0533L62.9789 84.8612M70.8942 87.2385L62.8628 85.0967M70.8463 87.4207L62.7453 85.3285M70.8008 87.6L62.626 85.5563M70.7574 87.7763L62.5045 85.7802M70.7162 87.9494L62.3801 86M70.6772 88.1193L62.2525 86.2157M70.6402 88.286L62.1209 86.4272M70.6052 88.4493L61.9847 86.6344M70.5721 88.6092L61.8432 86.8374M70.5409 88.7656L61.6957 87.0359M70.5116 88.9185L61.5412 87.23M70.484 89.0678L61.3788 87.4196M70.4582 89.2135L61.2073 87.6046M70.434 89.3553L61.0257 87.785M70.4114 89.4934L60.8324 87.9607M70.3904 89.6275L60.6259 88.1317M70.3709 89.7577L60.4044 88.2978M70.3528 89.8839L60.1658 88.4591M70.3362 90.0059L59.9078 88.6155M70.3208 90.1239L59.6275 88.7669M70.3068 90.2375L59.3215 88.9133M70.2939 90.3469L58.9861 89.0546M70.2823 90.4519L58.6165 89.1907M70.2717 90.5524L58.207 89.3217M70.2622 90.6484L57.7507 89.4474M70.2537 90.7399L57.2393 89.5677M70.2461 90.8267L56.6619 89.6828M70.2394 90.9088L56.0053 89.7924M70.2336 90.986L55.2523 89.8965M70.2285 91.0585L54.3802 89.9951M70.2242 91.126L53.3593 90.0881M70.2205 91.1884L52.1485 90.1755M70.2174 91.2459L50.6908 90.2572M70.2149 91.2981L48.9037 90.3331M70.2129 91.3452L46.6633 90.4032M70.2113 91.387L43.7753 90.4675M70.2102 91.4235L39.9157 90.5258M70.2093 91.4545L34.5013 90.5782M70.2088 91.48L26.3658 90.6246M70.2084 91.5L12.7882 90.6648M70.2083 91.5144L-14.395 90.6989M70.2082 91.523L-96 90.7268" stroke="#8B3975" stroke-opacity="0.6"/>
<path d="M61.7082 40.0259L44.2082 76.5259C44.2082 76.5259 48.7082 79.5259 51.2082 83.5259C53.7082 87.5259 53.7082 91.5259 53.7082 91.5259M61.7082 40.0259L78.7082 76.5259C78.7082 76.5259 74.2082 79.0259 72.2082 83.5259C70.2082 88.0259 70.2082 91.5259 70.2082 91.5259M61.7082 40.0259V63.5259M70.2082 91.5259L73.2082 106.526H51.2082L53.7082 91.5259M70.2082 91.5259H53.7082" stroke="black"/>
</g>
<defs>
<clipPath id="clip0">
<rect width="128" height="128" fill="white"/>
</clipPath>
</defs>
</svg>
