<svg width="128" height="128" viewBox="0 0 128 128" fill="none" xmlns="http://www.w3.org/2000/svg">
<rect width="128" height="128" fill="#00A4B4"/>
<path d="M92 35C99 32 105 30 109 32C102 34 97 36 93.0844 39.6899C89.9958 42.6005 87.2675 52.4807 85.5709 61.7541C83.6354 72.3334 75.7145 78.6821 65.6158 89.1546C55.5171 99.627 57.4883 106.698 54.386 109C50.0233 85.717 60.3523 80.1018 63.3537 70.7678C41.298 57.8971 26.0287 45.9856 19 33.3547C37.3393 32.3155 58.4255 43.9071 74.5027 55.7386C65 45 53 38.5 40 33.5C38 31.5 36.3698 29.2776 35.4004 26C54.386 26 67.6356 41.0292 75.3914 50.7022C76.9264 47.1048 75.8797 41.1977 80 38C84.1203 34.8023 86.1868 37.4914 92 35Z" fill="white"/>
</svg>
